<?xml version="1.0" encoding="iso-8859-1"?>
<!-- Generator: Adobe Illustrator 19.0.0, SVG Export Plug-In . SVG Version: 6.00 Build 0)  -->
<svg version="1.1" id="Capa_1" xmlns="http://www.w3.org/2000/svg" xmlns:xlink="http://www.w3.org/1999/xlink" x="0px" y="0px"
	 viewBox="0 0 512 512" style="enable-background:new 0 0 512 512;" xml:space="preserve">
<g>
	<path style="fill:#A72C3E;" d="M377.146,43.827c1.877-13.098-9.205-24.61-22.367-23.242c-27.425,2.853-56.619,28.932-56.619,28.932
		l84.059,21.364C376.655,60.751,376.084,51.237,377.146,43.827z"/>
	<path style="fill:#A72C3E;" d="M377.146,239.269c1.877,13.098-9.205,24.61-22.367,23.242
		c-27.425-2.853-56.619-28.932-56.619-28.932l84.059-21.364C376.655,222.345,376.084,231.859,377.146,239.269z"/>
	<path style="fill:#A72C3E;" d="M401.345,192.894c54.986,33.069,115.224,41.342,101.05,0
		c-11.418-33.303-12.488-46.269-12.473-50.051c0.004-0.861,0.004-1.722,0-2.582c-0.015-3.783,1.055-16.748,12.473-50.051
		c14.174-41.342-46.064-33.069-101.05,0V192.894z"/>
</g>
<path style="fill:#8E273A;" d="M501.585,190.506c-11.801,15.76-57.595,5.035-100.239-20.613v22.999
	c54.986,33.069,115.223,41.342,101.05,0C502.117,192.083,501.85,191.294,501.585,190.506z"/>
<path style="fill:#D83D59;" d="M269.626,48.679c60.649-0.743,130.237,13.575,170.983,72.233c8.635,12.427,8.635,28.843,0,41.27
	c-40.746,58.67-110.335,72.988-170.983,72.244V48.679z"/>
<path style="fill:#BC3245;" d="M442.243,159.592c1.402-2.431,2.514-5.016,3.318-7.704c0.204-0.682,0.391-1.368,0.554-2.058
	c0.022-0.094,0.05-0.188,0.071-0.284c-41.511,47.519-104.812,59.566-160.561,58.883c-5.414-0.066-10.755-0.254-16-0.539v26.538
	c1.895,0.023,3.799,0.032,5.711,0.025c10.514-0.039,21.257-0.55,32.037-1.681c18.773-1.971,37.426-5.783,55.208-12.186
	c13.216-4.759,25.953-10.968,37.645-18.773c13.496-9.01,25.852-20.277,36.48-34.258
	C438.658,164.987,440.622,162.385,442.243,159.592z"/>
<path style="fill:#F0C146;" d="M303.54,141.548c0,36.537-13.017,69.502-33.914,92.88c-63.862-0.776-117.821-18.253-117.821-18.253
	V66.932c0,0,53.96-17.477,117.821-18.253C290.523,72.047,303.54,105.021,303.54,141.548z"/>
<path style="fill:#D4AA3D;" d="M287.509,208.438c-0.627-0.004-1.258-0.001-1.883-0.009c-63.862-0.776-117.821-18.253-117.821-18.253
	l-16,25.999c0,0,3.807,1.233,10.596,3.059c12.286,3.305,24.73,6.02,37.251,8.271c13.6,2.445,27.262,3.644,40.933,5.467
	c9.327,0.806,19.064,1.335,29.041,1.457C276.504,226.733,282.521,217.994,287.509,208.438z"/>
<path style="fill:#664B62;" d="M26.632,10.243c-10.564,0-19.127,8.564-19.127,19.127v472.386h38.253V29.37
	C45.759,18.806,37.196,10.243,26.632,10.243z"/>
<path style="fill:#5C4258;" d="M34.632,12.013c-2.437-1.125-5.14-1.771-8-1.771c-10.564,0-19.127,8.563-19.127,19.127v472.386h16
	V29.37C23.505,21.666,28.069,15.044,34.632,12.013z"/>
<ellipse style="fill:#D83D59;" cx="151.807" cy="141.556" rx="42.289" ry="74.618"/>
<path style="fill:#272933;" d="M151.805,188.562c-4.869-3.116-14.962-19.49-14.962-47.011c0-27.522,10.093-43.896,14.962-47.011
	c4.869,3.116,14.962,19.49,14.962,47.011S156.674,185.446,151.805,188.562z"/>
<circle style="fill:#FFFFFF;" cx="239.995" cy="105.487" r="26.454"/>
<path style="fill:#A72C3E;" d="M400.415,136.185c-6.958-8.456-18.721-14.013-32.06-14.013s-25.101,5.557-32.059,14.013
	c-2.559,3.11-2.559,7.627,0,10.737c6.958,8.456,18.72,14.013,32.059,14.013s25.102-5.557,32.06-14.013
	C402.974,143.812,402.974,139.295,400.415,136.185z"/>
<path d="M155.841,88.223c-2.464-1.577-5.621-1.576-8.085,0c-7.121,4.558-18.419,23.066-18.419,53.329s11.298,48.77,18.419,53.328
	c1.232,0.789,2.638,1.183,4.043,1.183s2.811-0.395,4.042-1.183c7.122-4.557,18.419-23.064,18.419-53.328
	C174.26,111.288,162.963,92.78,155.841,88.223z M151.799,176.474c-3.369-6.318-7.462-17.806-7.462-34.922
	c0-17.129,4.098-28.62,7.459-34.929c3.37,6.317,7.465,17.805,7.465,34.929C159.261,158.669,155.168,170.156,151.799,176.474z"/>
<path d="M273.943,105.484c0-18.723-15.232-33.954-33.954-33.954s-33.954,15.232-33.954,33.954s15.232,33.954,33.954,33.954
	S273.943,124.206,273.943,105.484z M239.989,124.438c-10.452,0-18.955-8.503-18.955-18.955s8.503-18.955,18.955-18.955
	c10.451,0,18.955,8.503,18.955,18.955S250.44,124.438,239.989,124.438z"/>
<circle cx="239.985" cy="105.487" r="10.309"/>
<path d="M509.484,190.462c-11.533-33.638-12.076-45.544-12.068-47.589c0.003-0.881,0.003-1.761,0-2.643
	c-0.008-2.045,0.535-13.951,12.068-47.589c3.828-11.166,3.284-20.306-1.615-27.164c-5.098-7.137-14.12-10.756-26.814-10.756
	c-19.166,0-46.134,8.545-72.877,22.976c-6.397-4.538-13.2-8.653-20.378-12.358c-3.151-6.544-4.244-13.412-3.236-20.449
	c1.145-7.986-1.25-16.085-6.568-22.22c-5.907-6.814-15.02-10.478-23.998-9.545c-24.928,2.593-50.494,22.195-58.386,28.714
	c-7.035-0.448-14.228-0.687-21.59-0.687c-1.503,0-3.001,0.009-4.494,0.027c-59.593,0.725-111.289,15.921-119.034,18.303
	c-8.517,0.345-16.437,4.049-23.305,10.369l-73.935,1.269V29.372c0-14.683-11.945-26.626-26.626-26.626
	C11.945,2.743,0,14.688,0,29.37v472.386c0,4.142,3.358,7.5,7.5,7.5h38.253c4.142,0,7.5-3.358,7.5-7.5V211.984l73.935,1.269
	c6.861,6.312,14.77,10.013,23.273,10.367c7.831,2.442,58.716,17.575,119.066,18.309c1.488,0.018,2.994,0.027,4.503,0.027
	c7.362,0,14.554-0.239,21.588-0.687c7.888,6.525,33.394,26.104,58.378,28.703c0.963,0.1,1.94,0.151,2.906,0.151
	c8.063,0,15.75-3.534,21.092-9.695c5.319-6.135,7.713-14.235,6.569-22.222c-1.008-7.031,0.083-13.895,3.23-20.436
	c7.181-3.707,13.985-7.823,20.385-12.364c26.743,14.431,53.712,22.975,72.877,22.975c12.696,0,21.719-3.619,26.815-10.754
	C512.77,210.769,513.313,201.629,509.484,190.462z M317.764,44.054c10.241-6.858,24.43-14.621,37.785-16.009
	c4.185-0.437,8.321,1.231,11.113,4.451c2.504,2.888,3.588,6.535,3.054,10.267c-0.692,4.828-0.672,9.677,0.04,14.442
	c-14.628-5.663-29.902-9.592-45.369-12.139C322.2,44.706,319.997,44.365,317.764,44.054z M182.367,109.944
	c2.929,10.235,4.218,20.974,4.218,31.607c0,18.658-4.053,36.083-11.411,49.069c-4.807,8.487-12.697,18.054-23.376,18.054
	c-5.52,0-10.963-2.735-15.912-7.847c-0.129-0.145-0.262-0.284-0.401-0.419c-14.625-14.113-18.473-39.603-18.473-58.857
	c0-18.658,4.052-36.083,11.411-49.068c4.803-8.475,12.717-18.052,23.38-18.054C168.913,74.428,178.459,96.288,182.367,109.944z
	 M115.378,85.055c-7.367,12.943-12.156,29.934-13.158,48.996H53.253v-47.93L115.378,85.055z M38.253,494.256H15V29.37
	c0-6.412,5.216-11.627,11.627-11.627s11.627,5.216,11.627,11.627C38.253,29.37,38.253,494.256,38.253,494.256z M53.253,149.051
	h48.967c1.002,19.062,5.791,36.054,13.159,48.996l-62.125-1.066L53.253,149.051L53.253,149.051z M175.436,214.149
	c8.935-7.766,14.875-18.432,18.932-29.427c7.052-19.114,8.661-40.102,6.18-60.235c-2.484-20.156-9.654-42.489-25.683-56.021
	c20.536-4.918,54.215-11.415,91.382-12.228c3.629,4.308,6.942,8.85,9.931,13.625c18.525,29.563,23.959,66.589,16.937,100.571
	c-3.894,18.843-11.706,36.898-23.45,52.19c-0.326,0.425-2.828,4.26-3.42,4.247c-37.16-0.813-70.842-7.311-91.383-12.23
	C175.054,214.478,175.245,214.314,175.436,214.149z M285.236,226.732c18.432-26.114,26.704-58.744,25.702-90.498
	c-0.01-0.31-0.018-0.619-0.03-0.928c-1.073-28.146-9.766-55.645-25.674-78.939c-0.007-0.01-0.013-0.021-0.021-0.031
	c4.639,0.155,9.194,0.418,13.679,0.768c48.339,3.768,97.184,20.479,128.714,59.023c6.181,7.557,11.938,15.206,11.936,25.42
	c-0.002,9.848-5.966,18.12-11.94,25.427c-31.248,38.23-80.879,55.311-128.784,59.033c-4.462,0.347-8.993,0.608-13.608,0.762
	C285.219,226.758,285.227,226.745,285.236,226.732z M369.755,225.901c-0.711,4.763-0.73,9.607-0.039,14.432
	c0.535,3.733-0.55,7.38-3.054,10.268c-2.741,3.161-6.942,4.885-11.113,4.45c-13.353-1.389-27.535-9.145-37.772-16
	c8.924-1.245,17.792-2.939,26.532-5.125c7.807-1.955,15.519-4.292,23.06-7.109C367.882,226.626,369.47,226.011,369.755,225.901z
	 M495.665,208.909c-2.061,2.884-7.249,4.473-14.61,4.473c-15.231,0-37.529-6.822-59.96-18.141c1.67-1.466,3.298-2.983,4.905-4.516
	c7.624-7.275,14.693-15.524,20.762-24.262c10.354-14.902,10.354-34.927,0.001-49.829c-7.147-10.286-15.527-19.749-24.889-28.069
	c-0.261-0.232-0.515-0.473-0.777-0.703c22.431-11.32,44.728-18.141,59.958-18.141c7.36,0,12.548,1.589,14.609,4.475
	c2.395,3.353,1.122,9.236-0.368,13.582c-11.257,32.833-12.9,46.995-12.878,52.513c0.003,0.841,0.003,1.682,0,2.522
	c-0.022,5.519,1.621,19.681,12.878,52.514C496.785,199.672,498.059,205.557,495.665,208.909z"/>
<path d="M368.348,168.435c15.073,0,29.223-6.261,37.852-16.747c4.832-5.872,4.833-14.396,0-20.269
	c-8.629-10.486-22.779-16.747-37.852-16.747c-15.071,0-29.22,6.261-37.85,16.747c-4.833,5.872-4.833,14.396,0,20.269
	C339.128,162.174,353.277,168.435,368.348,168.435z M342.081,140.95c5.812-7.062,15.632-11.278,26.268-11.278
	c10.638,0,20.459,4.216,26.269,11.278c0.283,0.344,0.283,0.862,0,1.206c-5.811,7.063-15.631,11.279-26.269,11.279
	c-10.637,0-20.457-4.216-26.268-11.278C341.798,141.813,341.798,141.294,342.081,140.95z"/>
<g>
</g>
<g>
</g>
<g>
</g>
<g>
</g>
<g>
</g>
<g>
</g>
<g>
</g>
<g>
</g>
<g>
</g>
<g>
</g>
<g>
</g>
<g>
</g>
<g>
</g>
<g>
</g>
<g>
</g>
</svg>
